<mxfile host="65bd71144e">
    <diagram id="rfVSy-NNrYeYPNJivH7j" name="Page-1">
        <mxGraphModel dx="820" dy="574" grid="1" gridSize="10" guides="1" tooltips="1" connect="1" arrows="1" fold="1" page="1" pageScale="1" pageWidth="850" pageHeight="1100" math="0" shadow="0">
            <root>
                <mxCell id="0"/>
                <mxCell id="1" parent="0"/>
                <mxCell id="6" value="Document&lt;br&gt;Generator" style="html=1;" vertex="1" parent="1">
                    <mxGeometry x="350" y="170" width="150" height="80" as="geometry"/>
                </mxCell>
                <mxCell id="2" value="" style="shape=module;align=left;spacingLeft=20;align=center;verticalAlign=top;" vertex="1" parent="1">
                    <mxGeometry x="460" y="180" width="30" height="50" as="geometry"/>
                </mxCell>
                <mxCell id="10" value="" style="rounded=0;orthogonalLoop=1;jettySize=auto;html=1;endArrow=none;endFill=0;sketch=0;sourcePerimeterSpacing=0;targetPerimeterSpacing=0;exitX=1;exitY=0.5;exitDx=0;exitDy=0;" edge="1" target="12" parent="1">
                    <mxGeometry relative="1" as="geometry">
                        <mxPoint x="170.00000000000006" y="120" as="sourcePoint"/>
                    </mxGeometry>
                </mxCell>
                <mxCell id="11" value="" style="rounded=0;orthogonalLoop=1;jettySize=auto;html=1;endArrow=halfCircle;endFill=0;endSize=6;strokeWidth=1;sketch=0;exitX=0;exitY=0.25;exitDx=0;exitDy=0;" edge="1" target="12" parent="1" source="6">
                    <mxGeometry relative="1" as="geometry">
                        <mxPoint x="260" y="190.00000000000006" as="sourcePoint"/>
                        <mxPoint x="220" y="160" as="targetPoint"/>
                    </mxGeometry>
                </mxCell>
                <mxCell id="12" value="" style="ellipse;whiteSpace=wrap;html=1;align=center;aspect=fixed;resizable=0;points=[];outlineConnect=0;sketch=0;" vertex="1" parent="1">
                    <mxGeometry x="210" y="150" width="10" height="10" as="geometry"/>
                </mxCell>
                <mxCell id="13" value="Attendance&lt;br&gt;Report" style="html=1;" vertex="1" parent="1">
                    <mxGeometry x="20" y="200" width="150" height="80" as="geometry"/>
                </mxCell>
                <mxCell id="14" value="Income&lt;br&gt;Report" style="html=1;" vertex="1" parent="1">
                    <mxGeometry x="20" y="310" width="150" height="80" as="geometry"/>
                </mxCell>
                <mxCell id="15" value="Legal" style="html=1;" vertex="1" parent="1">
                    <mxGeometry x="20" y="90" width="150" height="80" as="geometry"/>
                </mxCell>
                <mxCell id="18" value="" style="shape=module;align=left;spacingLeft=20;align=center;verticalAlign=top;" vertex="1" parent="1">
                    <mxGeometry x="130" y="100" width="30" height="50" as="geometry"/>
                </mxCell>
                <mxCell id="19" value="" style="rounded=0;orthogonalLoop=1;jettySize=auto;html=1;endArrow=halfCircle;endFill=0;endSize=6;strokeWidth=1;sketch=0;exitX=0;exitY=0.5;exitDx=0;exitDy=0;" edge="1" parent="1" source="6" target="23">
                    <mxGeometry relative="1" as="geometry">
                        <mxPoint x="270" y="200" as="sourcePoint"/>
                        <mxPoint x="200" y="220" as="targetPoint"/>
                    </mxGeometry>
                </mxCell>
                <mxCell id="23" value="" style="ellipse;whiteSpace=wrap;html=1;align=center;aspect=fixed;resizable=0;points=[];outlineConnect=0;sketch=0;" vertex="1" parent="1">
                    <mxGeometry x="190" y="210" width="10" height="10" as="geometry"/>
                </mxCell>
                <mxCell id="24" value="" style="rounded=0;orthogonalLoop=1;jettySize=auto;html=1;endArrow=none;endFill=0;sketch=0;sourcePerimeterSpacing=0;exitX=1;exitY=0.25;exitDx=0;exitDy=0;" edge="1" parent="1" source="13" target="23">
                    <mxGeometry relative="1" as="geometry">
                        <mxPoint x="169.99999999999994" y="220" as="sourcePoint"/>
                        <mxPoint x="190" y="220" as="targetPoint"/>
                    </mxGeometry>
                </mxCell>
                <mxCell id="26" value="" style="rounded=0;orthogonalLoop=1;jettySize=auto;html=1;endArrow=halfCircle;endFill=0;endSize=6;strokeWidth=1;sketch=0;exitX=0;exitY=0.75;exitDx=0;exitDy=0;" edge="1" parent="1" source="6" target="30">
                    <mxGeometry relative="1" as="geometry">
                        <mxPoint x="270" y="210" as="sourcePoint"/>
                        <mxPoint x="210" y="310" as="targetPoint"/>
                    </mxGeometry>
                </mxCell>
                <mxCell id="30" value="" style="ellipse;whiteSpace=wrap;html=1;align=center;aspect=fixed;resizable=0;points=[];outlineConnect=0;sketch=0;" vertex="1" parent="1">
                    <mxGeometry x="200" y="310" width="10" height="10" as="geometry"/>
                </mxCell>
                <mxCell id="31" value="" style="rounded=0;orthogonalLoop=1;jettySize=auto;html=1;endArrow=none;endFill=0;sketch=0;sourcePerimeterSpacing=0;exitX=1;exitY=0.5;exitDx=0;exitDy=0;" edge="1" parent="1" target="30" source="14">
                    <mxGeometry relative="1" as="geometry">
                        <mxPoint x="175" y="440" as="sourcePoint"/>
                        <mxPoint x="205" y="320" as="targetPoint"/>
                    </mxGeometry>
                </mxCell>
                <mxCell id="32" value="IIncomeReportGenerator" style="text;html=1;align=center;verticalAlign=middle;resizable=0;points=[];autosize=1;strokeColor=none;fillColor=none;" vertex="1" parent="1">
                    <mxGeometry x="190" y="340" width="150" height="20" as="geometry"/>
                </mxCell>
                <mxCell id="33" value="IAttendaceReportGenerator" style="text;html=1;align=center;verticalAlign=middle;resizable=0;points=[];autosize=1;strokeColor=none;fillColor=none;" vertex="1" parent="1">
                    <mxGeometry x="170" y="230" width="160" height="20" as="geometry"/>
                </mxCell>
                <mxCell id="34" value="ILegalDcoumentsGenerator" style="text;html=1;align=center;verticalAlign=middle;resizable=0;points=[];autosize=1;strokeColor=none;fillColor=none;" vertex="1" parent="1">
                    <mxGeometry x="195" y="115" width="160" height="20" as="geometry"/>
                </mxCell>
                <mxCell id="35" value="" style="shape=module;align=left;spacingLeft=20;align=center;verticalAlign=top;" vertex="1" parent="1">
                    <mxGeometry x="130" y="210" width="30" height="50" as="geometry"/>
                </mxCell>
                <mxCell id="36" value="" style="shape=module;align=left;spacingLeft=20;align=center;verticalAlign=top;" vertex="1" parent="1">
                    <mxGeometry x="130" y="320" width="30" height="50" as="geometry"/>
                </mxCell>
                <mxCell id="37" value="Entities&lt;br&gt;Manager" style="html=1;" vertex="1" parent="1">
                    <mxGeometry x="365" y="540" width="150" height="80" as="geometry"/>
                </mxCell>
                <mxCell id="38" value="" style="shape=module;align=left;spacingLeft=20;align=center;verticalAlign=top;" vertex="1" parent="1">
                    <mxGeometry x="475" y="550" width="30" height="50" as="geometry"/>
                </mxCell>
                <mxCell id="39" value="" style="rounded=0;orthogonalLoop=1;jettySize=auto;html=1;endArrow=none;endFill=0;sketch=0;sourcePerimeterSpacing=0;targetPerimeterSpacing=0;exitX=1;exitY=0.5;exitDx=0;exitDy=0;" edge="1" parent="1" target="41">
                    <mxGeometry relative="1" as="geometry">
                        <mxPoint x="185" y="490" as="sourcePoint"/>
                    </mxGeometry>
                </mxCell>
                <mxCell id="40" value="" style="rounded=0;orthogonalLoop=1;jettySize=auto;html=1;endArrow=halfCircle;endFill=0;endSize=6;strokeWidth=1;sketch=0;exitX=0;exitY=0.25;exitDx=0;exitDy=0;" edge="1" parent="1" source="37" target="41">
                    <mxGeometry relative="1" as="geometry">
                        <mxPoint x="275" y="560" as="sourcePoint"/>
                        <mxPoint x="235" y="530" as="targetPoint"/>
                    </mxGeometry>
                </mxCell>
                <mxCell id="41" value="" style="ellipse;whiteSpace=wrap;html=1;align=center;aspect=fixed;resizable=0;points=[];outlineConnect=0;sketch=0;" vertex="1" parent="1">
                    <mxGeometry x="225" y="520" width="10" height="10" as="geometry"/>
                </mxCell>
                <mxCell id="42" value="Students" style="html=1;" vertex="1" parent="1">
                    <mxGeometry x="35" y="570" width="150" height="80" as="geometry"/>
                </mxCell>
                <mxCell id="43" value="Groups" style="html=1;" vertex="1" parent="1">
                    <mxGeometry x="35" y="680" width="150" height="80" as="geometry"/>
                </mxCell>
                <mxCell id="44" value="Users" style="html=1;" vertex="1" parent="1">
                    <mxGeometry x="35" y="460" width="150" height="80" as="geometry"/>
                </mxCell>
                <mxCell id="45" value="" style="shape=module;align=left;spacingLeft=20;align=center;verticalAlign=top;" vertex="1" parent="1">
                    <mxGeometry x="145" y="470" width="30" height="50" as="geometry"/>
                </mxCell>
                <mxCell id="46" value="" style="rounded=0;orthogonalLoop=1;jettySize=auto;html=1;endArrow=halfCircle;endFill=0;endSize=6;strokeWidth=1;sketch=0;exitX=0;exitY=0.5;exitDx=0;exitDy=0;" edge="1" parent="1" source="37" target="47">
                    <mxGeometry relative="1" as="geometry">
                        <mxPoint x="285" y="570" as="sourcePoint"/>
                        <mxPoint x="215" y="590" as="targetPoint"/>
                    </mxGeometry>
                </mxCell>
                <mxCell id="47" value="" style="ellipse;whiteSpace=wrap;html=1;align=center;aspect=fixed;resizable=0;points=[];outlineConnect=0;sketch=0;" vertex="1" parent="1">
                    <mxGeometry x="205" y="580" width="10" height="10" as="geometry"/>
                </mxCell>
                <mxCell id="48" value="" style="rounded=0;orthogonalLoop=1;jettySize=auto;html=1;endArrow=none;endFill=0;sketch=0;sourcePerimeterSpacing=0;exitX=1;exitY=0.25;exitDx=0;exitDy=0;" edge="1" parent="1" source="42" target="47">
                    <mxGeometry relative="1" as="geometry">
                        <mxPoint x="184.99999999999994" y="590" as="sourcePoint"/>
                        <mxPoint x="205" y="590" as="targetPoint"/>
                    </mxGeometry>
                </mxCell>
                <mxCell id="49" value="" style="rounded=0;orthogonalLoop=1;jettySize=auto;html=1;endArrow=halfCircle;endFill=0;endSize=6;strokeWidth=1;sketch=0;exitX=0;exitY=0.75;exitDx=0;exitDy=0;" edge="1" parent="1" source="37" target="50">
                    <mxGeometry relative="1" as="geometry">
                        <mxPoint x="285" y="580" as="sourcePoint"/>
                        <mxPoint x="225" y="680" as="targetPoint"/>
                    </mxGeometry>
                </mxCell>
                <mxCell id="50" value="" style="ellipse;whiteSpace=wrap;html=1;align=center;aspect=fixed;resizable=0;points=[];outlineConnect=0;sketch=0;" vertex="1" parent="1">
                    <mxGeometry x="215" y="680" width="10" height="10" as="geometry"/>
                </mxCell>
                <mxCell id="51" value="" style="rounded=0;orthogonalLoop=1;jettySize=auto;html=1;endArrow=none;endFill=0;sketch=0;sourcePerimeterSpacing=0;exitX=1;exitY=0.5;exitDx=0;exitDy=0;" edge="1" parent="1" source="43" target="50">
                    <mxGeometry relative="1" as="geometry">
                        <mxPoint x="190" y="810" as="sourcePoint"/>
                        <mxPoint x="220" y="690" as="targetPoint"/>
                    </mxGeometry>
                </mxCell>
                <mxCell id="52" value="IGroupsManager" style="text;html=1;align=center;verticalAlign=middle;resizable=0;points=[];autosize=1;strokeColor=none;fillColor=none;" vertex="1" parent="1">
                    <mxGeometry x="195" y="710" width="110" height="20" as="geometry"/>
                </mxCell>
                <mxCell id="53" value="IStudentsManager" style="text;html=1;align=center;verticalAlign=middle;resizable=0;points=[];autosize=1;strokeColor=none;fillColor=none;" vertex="1" parent="1">
                    <mxGeometry x="210" y="600" width="110" height="20" as="geometry"/>
                </mxCell>
                <mxCell id="54" value="IUsersManager" style="text;html=1;align=center;verticalAlign=middle;resizable=0;points=[];autosize=1;strokeColor=none;fillColor=none;" vertex="1" parent="1">
                    <mxGeometry x="240" y="485" width="100" height="20" as="geometry"/>
                </mxCell>
                <mxCell id="55" value="" style="shape=module;align=left;spacingLeft=20;align=center;verticalAlign=top;" vertex="1" parent="1">
                    <mxGeometry x="145" y="580" width="30" height="50" as="geometry"/>
                </mxCell>
                <mxCell id="56" value="" style="shape=module;align=left;spacingLeft=20;align=center;verticalAlign=top;" vertex="1" parent="1">
                    <mxGeometry x="145" y="690" width="30" height="50" as="geometry"/>
                </mxCell>
                <mxCell id="59" value="" style="rounded=0;orthogonalLoop=1;jettySize=auto;html=1;endArrow=none;endFill=0;sketch=0;sourcePerimeterSpacing=0;targetPerimeterSpacing=0;exitX=1;exitY=0.5;exitDx=0;exitDy=0;" edge="1" parent="1" target="61">
                    <mxGeometry relative="1" as="geometry">
                        <mxPoint x="185" y="820" as="sourcePoint"/>
                    </mxGeometry>
                </mxCell>
                <mxCell id="60" value="" style="rounded=0;orthogonalLoop=1;jettySize=auto;html=1;endArrow=halfCircle;endFill=0;endSize=6;strokeWidth=1;sketch=0;exitX=0;exitY=1;exitDx=0;exitDy=0;" edge="1" parent="1" source="37" target="61">
                    <mxGeometry relative="1" as="geometry">
                        <mxPoint x="275" y="890" as="sourcePoint"/>
                        <mxPoint x="235" y="860" as="targetPoint"/>
                    </mxGeometry>
                </mxCell>
                <mxCell id="61" value="" style="ellipse;whiteSpace=wrap;html=1;align=center;aspect=fixed;resizable=0;points=[];outlineConnect=0;sketch=0;" vertex="1" parent="1">
                    <mxGeometry x="225" y="850" width="10" height="10" as="geometry"/>
                </mxCell>
                <mxCell id="62" value="Student&lt;br&gt;Representatives" style="html=1;" vertex="1" parent="1">
                    <mxGeometry x="35" y="900" width="150" height="80" as="geometry"/>
                </mxCell>
                <mxCell id="63" value="Attendances" style="html=1;" vertex="1" parent="1">
                    <mxGeometry x="35" y="1010" width="150" height="80" as="geometry"/>
                </mxCell>
                <mxCell id="64" value="Customers" style="html=1;" vertex="1" parent="1">
                    <mxGeometry x="35" y="790" width="150" height="80" as="geometry"/>
                </mxCell>
                <mxCell id="65" value="" style="shape=module;align=left;spacingLeft=20;align=center;verticalAlign=top;" vertex="1" parent="1">
                    <mxGeometry x="145" y="800" width="30" height="50" as="geometry"/>
                </mxCell>
                <mxCell id="66" value="" style="rounded=0;orthogonalLoop=1;jettySize=auto;html=1;endArrow=halfCircle;endFill=0;endSize=6;strokeWidth=1;sketch=0;exitX=0.25;exitY=1;exitDx=0;exitDy=0;" edge="1" parent="1" source="37" target="67">
                    <mxGeometry relative="1" as="geometry">
                        <mxPoint x="390" y="660" as="sourcePoint"/>
                        <mxPoint x="215" y="920" as="targetPoint"/>
                        <Array as="points">
                            <mxPoint x="320" y="830"/>
                        </Array>
                    </mxGeometry>
                </mxCell>
                <mxCell id="67" value="" style="ellipse;whiteSpace=wrap;html=1;align=center;aspect=fixed;resizable=0;points=[];outlineConnect=0;sketch=0;" vertex="1" parent="1">
                    <mxGeometry x="205" y="910" width="10" height="10" as="geometry"/>
                </mxCell>
                <mxCell id="68" value="" style="rounded=0;orthogonalLoop=1;jettySize=auto;html=1;endArrow=none;endFill=0;sketch=0;sourcePerimeterSpacing=0;exitX=1;exitY=0.25;exitDx=0;exitDy=0;" edge="1" parent="1" source="62" target="67">
                    <mxGeometry relative="1" as="geometry">
                        <mxPoint x="184.99999999999994" y="920" as="sourcePoint"/>
                        <mxPoint x="205" y="920" as="targetPoint"/>
                    </mxGeometry>
                </mxCell>
                <mxCell id="69" value="" style="rounded=0;orthogonalLoop=1;jettySize=auto;html=1;endArrow=halfCircle;endFill=0;endSize=6;strokeWidth=1;sketch=0;exitX=0.5;exitY=1;exitDx=0;exitDy=0;" edge="1" parent="1" source="37" target="70">
                    <mxGeometry relative="1" as="geometry">
                        <mxPoint x="365" y="930" as="sourcePoint"/>
                        <mxPoint x="225" y="1010" as="targetPoint"/>
                        <Array as="points">
                            <mxPoint x="330" y="880"/>
                        </Array>
                    </mxGeometry>
                </mxCell>
                <mxCell id="70" value="" style="ellipse;whiteSpace=wrap;html=1;align=center;aspect=fixed;resizable=0;points=[];outlineConnect=0;sketch=0;" vertex="1" parent="1">
                    <mxGeometry x="215" y="1010" width="10" height="10" as="geometry"/>
                </mxCell>
                <mxCell id="71" value="" style="rounded=0;orthogonalLoop=1;jettySize=auto;html=1;endArrow=none;endFill=0;sketch=0;sourcePerimeterSpacing=0;exitX=1;exitY=0.5;exitDx=0;exitDy=0;" edge="1" parent="1" source="63" target="70">
                    <mxGeometry relative="1" as="geometry">
                        <mxPoint x="190" y="1140" as="sourcePoint"/>
                        <mxPoint x="220" y="1020" as="targetPoint"/>
                    </mxGeometry>
                </mxCell>
                <mxCell id="72" value="IAttendancesManager" style="text;html=1;align=center;verticalAlign=middle;resizable=0;points=[];autosize=1;strokeColor=none;fillColor=none;" vertex="1" parent="1">
                    <mxGeometry x="250" y="990" width="130" height="20" as="geometry"/>
                </mxCell>
                <mxCell id="73" value="IStudentRepresentativesManager" style="text;html=1;align=center;verticalAlign=middle;resizable=0;points=[];autosize=1;strokeColor=none;fillColor=none;" vertex="1" parent="1">
                    <mxGeometry x="280" y="860" width="190" height="20" as="geometry"/>
                </mxCell>
                <mxCell id="74" value="ICustomersManager" style="text;html=1;align=center;verticalAlign=middle;resizable=0;points=[];autosize=1;strokeColor=none;fillColor=none;" vertex="1" parent="1">
                    <mxGeometry x="185" y="770" width="120" height="20" as="geometry"/>
                </mxCell>
                <mxCell id="75" value="" style="shape=module;align=left;spacingLeft=20;align=center;verticalAlign=top;" vertex="1" parent="1">
                    <mxGeometry x="145" y="910" width="30" height="50" as="geometry"/>
                </mxCell>
                <mxCell id="76" value="" style="shape=module;align=left;spacingLeft=20;align=center;verticalAlign=top;" vertex="1" parent="1">
                    <mxGeometry x="145" y="1020" width="30" height="50" as="geometry"/>
                </mxCell>
                <mxCell id="83" value="Personal&lt;br&gt;Informations" style="html=1;" vertex="1" parent="1">
                    <mxGeometry x="450" y="750" width="150" height="80" as="geometry"/>
                </mxCell>
                <mxCell id="87" value="" style="rounded=0;orthogonalLoop=1;jettySize=auto;html=1;endArrow=halfCircle;endFill=0;endSize=6;strokeWidth=1;sketch=0;exitX=0.75;exitY=1;exitDx=0;exitDy=0;" edge="1" parent="1" source="37" target="88">
                    <mxGeometry relative="1" as="geometry">
                        <mxPoint x="700" y="750" as="sourcePoint"/>
                        <mxPoint x="420" y="720" as="targetPoint"/>
                    </mxGeometry>
                </mxCell>
                <mxCell id="88" value="" style="ellipse;whiteSpace=wrap;html=1;align=center;aspect=fixed;resizable=0;points=[];outlineConnect=0;sketch=0;" vertex="1" parent="1">
                    <mxGeometry x="410" y="730" width="10" height="10" as="geometry"/>
                </mxCell>
                <mxCell id="89" value="" style="rounded=0;orthogonalLoop=1;jettySize=auto;html=1;endArrow=none;endFill=0;sketch=0;sourcePerimeterSpacing=0;exitX=0;exitY=0;exitDx=0;exitDy=0;" edge="1" parent="1" source="83" target="88">
                    <mxGeometry relative="1" as="geometry">
                        <mxPoint x="600" y="770" as="sourcePoint"/>
                        <mxPoint x="620" y="770" as="targetPoint"/>
                    </mxGeometry>
                </mxCell>
                <mxCell id="96" value="" style="shape=module;align=left;spacingLeft=20;align=center;verticalAlign=top;" vertex="1" parent="1">
                    <mxGeometry x="560" y="760" width="30" height="50" as="geometry"/>
                </mxCell>
                <mxCell id="99" value="IPersonalInformationManager" style="text;html=1;align=center;verticalAlign=middle;resizable=0;points=[];autosize=1;strokeColor=none;fillColor=none;" vertex="1" parent="1">
                    <mxGeometry x="460" y="720" width="170" height="20" as="geometry"/>
                </mxCell>
            </root>
        </mxGraphModel>
    </diagram>
</mxfile>